<svg xmlns="http://www.w3.org/2000/svg" xmlns:xlink="http://www.w3.org/1999/xlink" width="1366" zoomAndPan="magnify" viewBox="0 0 1024.5 576" height="768" preserveAspectRatio="xMidYMid meet" version="1.0"><defs><filter x="0%" y="0%" width="100%" height="100%" id="7347ea89cd"><feColorMatrix values="0 0 0 0 1 0 0 0 0 1 0 0 0 0 1 0 0 0 1 0" color-interpolation-filters="sRGB"/></filter><clipPath id="bb9c3349c0"><path d="M 0 0.140625 L 1024 0.140625 L 1024 575.859375 L 0 575.859375 Z M 0 0.140625 " clip-rule="nonzero"/></clipPath><clipPath id="73f0afbd30"><path d="M 280 0.140625 L 283 0.140625 L 283 575.859375 L 280 575.859375 Z M 280 0.140625 " clip-rule="nonzero"/></clipPath><mask id="a46d50e9fe"><g filter="url(#7347ea89cd)"><rect x="-102.45" width="1229.4" fill="#000000" y="-57.6" height="691.2" fill-opacity="0.52"/></g></mask><clipPath id="ba21df1e28"><path d="M 0.859375 0.140625 L 2.34375 0.140625 L 2.34375 575.859375 L 0.859375 575.859375 Z M 0.859375 0.140625 " clip-rule="nonzero"/></clipPath><clipPath id="cb575fef18"><rect x="0" width="3" y="0" height="576"/></clipPath><clipPath id="da504b2195"><path d="M 56 0.140625 L 58 0.140625 L 58 575.859375 L 56 575.859375 Z M 56 0.140625 " clip-rule="nonzero"/></clipPath><mask id="755bc8c557"><g filter="url(#7347ea89cd)"><rect x="-102.45" width="1229.4" fill="#000000" y="-57.6" height="691.2" fill-opacity="0.5"/></g></mask><clipPath id="642ffa670c"><path d="M 0.269531 0.140625 L 1.570312 0.140625 L 1.570312 575.859375 L 0.269531 575.859375 Z M 0.269531 0.140625 " clip-rule="nonzero"/></clipPath><clipPath id="48cbcbcfaa"><rect x="0" width="2" y="0" height="576"/></clipPath><clipPath id="cbeaf72bfc"><path d="M 511 0.140625 L 514 0.140625 L 514 575.859375 L 511 575.859375 Z M 511 0.140625 " clip-rule="nonzero"/></clipPath><mask id="775195d86b"><g filter="url(#7347ea89cd)"><rect x="-102.45" width="1229.4" fill="#000000" y="-57.6" height="691.2" fill-opacity="0.49"/></g></mask><clipPath id="6e49a5c26c"><path d="M 1 0.140625 L 2.347656 0.140625 L 2.347656 575.859375 L 1 575.859375 Z M 1 0.140625 " clip-rule="nonzero"/></clipPath><clipPath id="dd81c0bb52"><rect x="0" width="3" y="0" height="576"/></clipPath><clipPath id="fd68866ee1"><path d="M 741 0.140625 L 743 0.140625 L 743 575.859375 L 741 575.859375 Z M 741 0.140625 " clip-rule="nonzero"/></clipPath><mask id="3816d9d1a0"><g filter="url(#7347ea89cd)"><rect x="-102.45" width="1229.4" fill="#000000" y="-57.6" height="691.2" fill-opacity="0.5"/></g></mask><clipPath id="40e06d8d63"><path d="M 0.539062 0.140625 L 1.917969 0.140625 L 1.917969 575.859375 L 0.539062 575.859375 Z M 0.539062 0.140625 " clip-rule="nonzero"/></clipPath><clipPath id="4135d744ff"><rect x="0" width="2" y="0" height="576"/></clipPath><clipPath id="cf614a2608"><path d="M 966 0.140625 L 968 0.140625 L 968 575.859375 L 966 575.859375 Z M 966 0.140625 " clip-rule="nonzero"/></clipPath><mask id="8fb9688c6d"><g filter="url(#7347ea89cd)"><rect x="-102.45" width="1229.4" fill="#000000" y="-57.6" height="691.2" fill-opacity="0.5"/></g></mask><clipPath id="dabce0a29c"><path d="M 0.429688 0.140625 L 1.925781 0.140625 L 1.925781 575.859375 L 0.429688 575.859375 Z M 0.429688 0.140625 " clip-rule="nonzero"/></clipPath><clipPath id="c7e1a37ddc"><rect x="0" width="2" y="0" height="576"/></clipPath></defs><g clip-path="url(#bb9c3349c0)"><path fill="#ffffff" d="M 0 0.140625 L 1024 0.140625 L 1024 575.859375 L 0 575.859375 Z M 0 0.140625 " fill-opacity="1" fill-rule="nonzero"/><path fill="#101010" d="M 0 0.140625 L 1024 0.140625 L 1024 575.859375 L 0 575.859375 Z M 0 0.140625 " fill-opacity="1" fill-rule="nonzero"/></g><g clip-path="url(#73f0afbd30)"><g mask="url(#a46d50e9fe)"><g transform="matrix(1, 0, 0, 1, 280, 0.000000000000055289)"><g clip-path="url(#cb575fef18)"><g clip-path="url(#ba21df1e28)"><path fill="#222222" d="M 0.859375 -0.125 L 2.183594 -0.125 L 2.183594 613.539062 L 0.859375 613.539062 Z M 0.859375 -0.125 " fill-opacity="1" fill-rule="nonzero"/></g></g></g></g></g><g clip-path="url(#da504b2195)"><g mask="url(#755bc8c557)"><g transform="matrix(1, 0, 0, 1, 56, 0.000000000000055289)"><g clip-path="url(#48cbcbcfaa)"><g clip-path="url(#642ffa670c)"><path fill="#222222" d="M 0.269531 -13.398438 L 1.570312 -13.398438 L 1.570312 589.402344 L 0.269531 589.402344 Z M 0.269531 -13.398438 " fill-opacity="1" fill-rule="nonzero"/></g></g></g></g></g><g clip-path="url(#cbeaf72bfc)"><g mask="url(#775195d86b)"><g transform="matrix(1, 0, 0, 1, 511, 0.000000000000055289)"><g clip-path="url(#dd81c0bb52)"><g clip-path="url(#6e49a5c26c)"><path fill="#222222" d="M 1 -13.398438 L 2.300781 -13.398438 L 2.300781 589.402344 L 1 589.402344 Z M 1 -13.398438 " fill-opacity="1" fill-rule="nonzero"/></g></g></g></g></g><g clip-path="url(#fd68866ee1)"><g mask="url(#3816d9d1a0)"><g transform="matrix(1, 0, 0, 1, 741, 0.000000000000055289)"><g clip-path="url(#4135d744ff)"><g clip-path="url(#40e06d8d63)"><path fill="#222222" d="M 0.539062 -13.398438 L 1.839844 -13.398438 L 1.839844 589.402344 L 0.539062 589.402344 Z M 0.539062 -13.398438 " fill-opacity="1" fill-rule="nonzero"/></g></g></g></g></g><g clip-path="url(#cf614a2608)"><g mask="url(#8fb9688c6d)"><g transform="matrix(1, 0, 0, 1, 966, 0.000000000000055289)"><g clip-path="url(#c7e1a37ddc)"><g clip-path="url(#dabce0a29c)"><path fill="#222222" d="M 0.429688 -13.398438 L 1.726562 -13.398438 L 1.726562 589.402344 L 0.429688 589.402344 Z M 0.429688 -13.398438 " fill-opacity="1" fill-rule="nonzero"/></g></g></g></g></g></svg>